<svg width="166" height="24" viewBox="0 0 166 24" fill="none" xmlns="http://www.w3.org/2000/svg">
<path d="M0 23.6819V0.260241H9.60018V3.20964H4.26675V10.0337H8.61998V13.012H4.26675V23.6819H0Z" fill="black"/>
<path d="M10.0513 23.6819L14.7217 0.260241H19.2767L23.9471 23.6819H19.9975L19.0749 18.2747H15.01L14.0586 23.6819H10.0513ZM15.4424 15.5566H18.6136L17.028 5.7253L15.4424 15.5566Z" fill="black"/>
<path d="M32.0641 24C30.6611 24 29.4887 23.7301 28.5469 23.1904C27.6052 22.6313 26.8941 21.8217 26.4136 20.7614C25.9331 19.7012 25.664 18.4 25.6063 16.8578L29.2677 16.1349C29.3061 17.041 29.4118 17.841 29.5848 18.5349C29.777 19.2289 30.0557 19.7687 30.4208 20.1542C30.8052 20.5205 31.3049 20.7036 31.92 20.7036C32.6119 20.7036 33.102 20.5012 33.3903 20.0964C33.6786 19.6723 33.8227 19.1422 33.8227 18.506C33.8227 17.4843 33.5921 16.6458 33.1308 15.9904C32.6695 15.3349 32.0545 14.6795 31.2857 14.0241L28.3451 11.4217C27.5187 10.7084 26.8556 9.91807 26.3559 9.0506C25.8754 8.16386 25.6352 7.0747 25.6352 5.78313C25.6352 3.93253 26.1733 2.50602 27.2496 1.50362C28.3259 0.501205 29.7962 0 31.6605 0C32.756 0 33.669 0.173494 34.3993 0.520482C35.1296 0.848193 35.7062 1.31084 36.1291 1.90843C36.5711 2.50602 36.8979 3.19036 37.1093 3.96145C37.3207 4.71325 37.4552 5.51325 37.5129 6.36145L33.8804 6.99759C33.8419 6.26506 33.7554 5.60964 33.6209 5.03132C33.5056 4.45301 33.2846 4 32.9578 3.67229C32.6503 3.34458 32.189 3.18072 31.574 3.18072C30.9398 3.18072 30.4497 3.39277 30.1037 3.81687C29.777 4.22169 29.6136 4.73253 29.6136 5.3494C29.6136 6.13976 29.777 6.79518 30.1037 7.31566C30.4305 7.81687 30.9013 8.33735 31.5164 8.87711L34.4281 11.4506C35.3891 12.2602 36.2059 13.2145 36.8786 14.3133C37.5705 15.3928 37.9165 16.7036 37.9165 18.2458C37.9165 19.3639 37.6666 20.3566 37.1669 21.2241C36.6864 22.0916 36.0041 22.7759 35.12 23.2771C34.2552 23.759 33.2365 24 32.0641 24Z" fill="black"/>
<path d="M40.4864 23.6819V0.260241H44.7243V10.0626H49.4811V0.260241H53.7479V23.6819H49.4811V13.0988H44.7243V23.6819H40.4864Z" fill="black"/>
<path d="M57.4362 23.6819V0.260241H61.6453V23.6819H57.4362Z" fill="black"/>
<path d="M71.6027 24C69.9498 24 68.6333 23.6916 67.6531 23.0747C66.6729 22.4578 65.9714 21.5711 65.5485 20.4145C65.1257 19.2578 64.9143 17.8892 64.9143 16.3084V7.54699C64.9143 5.96627 65.1257 4.61687 65.5485 3.4988C65.9714 2.36145 66.6729 1.49398 67.6531 0.896386C68.6333 0.298795 69.9498 0 71.6027 0C73.294 0 74.6202 0.298795 75.5812 0.896386C76.5614 1.49398 77.2629 2.36145 77.6857 3.4988C78.1278 4.61687 78.3488 5.96627 78.3488 7.54699V16.3373C78.3488 17.8988 78.1278 19.2578 77.6857 20.4145C77.2629 21.5518 76.5614 22.4386 75.5812 23.0747C74.6202 23.6916 73.294 24 71.6027 24ZM71.6027 20.8482C72.3138 20.8482 72.8328 20.694 73.1595 20.3855C73.5054 20.0771 73.7361 19.653 73.8514 19.1133C73.9667 18.5735 74.0244 17.9855 74.0244 17.3494V6.56386C74.0244 5.90843 73.9667 5.32048 73.8514 4.8C73.7361 4.27952 73.5054 3.8747 73.1595 3.58554C72.8328 3.27711 72.3138 3.12289 71.6027 3.12289C70.93 3.12289 70.4207 3.27711 70.0748 3.58554C69.7288 3.8747 69.4982 4.27952 69.3828 4.8C69.2675 5.32048 69.2099 5.90843 69.2099 6.56386V17.3494C69.2099 17.9855 69.2579 18.5735 69.354 19.1133C69.4693 19.653 69.7 20.0771 70.0459 20.3855C70.3919 20.694 70.9108 20.8482 71.6027 20.8482Z" fill="black"/>
<path d="M81.5049 23.6819V0.260241H84.4743L90.1537 13.6193V0.260241H93.6709V23.6819H90.8456L85.1374 9.68675V23.6819H81.5049Z" fill="black"/>
<path d="M103.096 24C101.693 24 100.52 23.7301 99.5787 23.1904C98.6369 22.6313 97.9258 21.8217 97.4453 20.7614C96.9648 19.7012 96.6957 18.4 96.6381 16.8578L100.299 16.1349C100.338 17.041 100.444 17.841 100.617 18.5349C100.809 19.2289 101.087 19.7687 101.453 20.1542C101.837 20.5205 102.337 20.7036 102.952 20.7036C103.644 20.7036 104.134 20.5012 104.422 20.0964C104.71 19.6723 104.854 19.1422 104.854 18.506C104.854 17.4843 104.624 16.6458 104.163 15.9904C103.701 15.3349 103.086 14.6795 102.317 14.0241L99.3769 11.4217C98.5504 10.7084 97.8874 9.91807 97.3877 9.0506C96.9072 8.16386 96.6669 7.0747 96.6669 5.78313C96.6669 3.93253 97.2051 2.50602 98.2814 1.50362C99.3577 0.501205 100.828 0 102.692 0C103.788 0 104.701 0.173494 105.431 0.520482C106.161 0.848193 106.738 1.31084 107.161 1.90843C107.603 2.50602 107.93 3.19036 108.141 3.96145C108.352 4.71325 108.487 5.51325 108.545 6.36145L104.912 6.99759C104.874 6.26506 104.787 5.60964 104.653 5.03132C104.537 4.45301 104.316 4 103.99 3.67229C103.682 3.34458 103.221 3.18072 102.606 3.18072C101.972 3.18072 101.481 3.39277 101.135 3.81687C100.809 4.22169 100.645 4.73253 100.645 5.3494C100.645 6.13976 100.809 6.79518 101.135 7.31566C101.462 7.81687 101.933 8.33735 102.548 8.87711L105.46 11.4506C106.421 12.2602 107.238 13.2145 107.91 14.3133C108.602 15.3928 108.948 16.7036 108.948 18.2458C108.948 19.3639 108.698 20.3566 108.199 21.2241C107.718 22.0916 107.036 22.7759 106.152 23.2771C105.287 23.759 104.268 24 103.096 24Z" fill="black"/>
<path d="M113.796 23.6819V3.41205H110.077V0.260241H121.724V3.41205H118.062V23.6819H113.796Z" fill="black"/>
<path d="M130.078 24C128.425 24 127.108 23.6916 126.128 23.0747C125.148 22.4578 124.447 21.5711 124.024 20.4145C123.601 19.2578 123.389 17.8892 123.389 16.3084V7.54699C123.389 5.96627 123.601 4.61687 124.024 3.4988C124.447 2.36145 125.148 1.49398 126.128 0.896386C127.108 0.298795 128.425 0 130.078 0C131.769 0 133.095 0.298795 134.056 0.896386C135.037 1.49398 135.738 2.36145 136.161 3.4988C136.603 4.61687 136.824 5.96627 136.824 7.54699V16.3373C136.824 17.8988 136.603 19.2578 136.161 20.4145C135.738 21.5518 135.037 22.4386 134.056 23.0747C133.095 23.6916 131.769 24 130.078 24ZM130.078 20.8482C130.789 20.8482 131.308 20.694 131.635 20.3855C131.981 20.0771 132.211 19.653 132.327 19.1133C132.442 18.5735 132.5 17.9855 132.5 17.3494V6.56386C132.5 5.90843 132.442 5.32048 132.327 4.8C132.211 4.27952 131.981 3.8747 131.635 3.58554C131.308 3.27711 130.789 3.12289 130.078 3.12289C129.405 3.12289 128.896 3.27711 128.55 3.58554C128.204 3.8747 127.973 4.27952 127.858 4.8C127.743 5.32048 127.685 5.90843 127.685 6.56386V17.3494C127.685 17.9855 127.733 18.5735 127.829 19.1133C127.945 19.653 128.175 20.0771 128.521 20.3855C128.867 20.694 129.386 20.8482 130.078 20.8482Z" fill="black"/>
<path d="M139.98 23.6819V0.260241H145.573C147.149 0.260241 148.475 0.453012 149.551 0.838555C150.647 1.20482 151.473 1.84096 152.031 2.74699C152.607 3.65301 152.896 4.88675 152.896 6.44819C152.896 7.39277 152.809 8.24096 152.636 8.99277C152.463 9.74458 152.165 10.3904 151.743 10.9301C151.339 11.4506 150.772 11.8554 150.042 12.1446L153.299 23.6819H149.033L146.207 12.9542H144.247V23.6819H139.98ZM144.247 10.2651H145.573C146.399 10.2651 147.053 10.1494 147.533 9.91807C148.033 9.66747 148.389 9.28193 148.6 8.76145C148.812 8.22169 148.917 7.53735 148.917 6.70843C148.917 5.53253 148.696 4.65542 148.254 4.07711C147.831 3.47952 147.014 3.18072 145.804 3.18072H144.247V10.2651Z" fill="black"/>
<path d="M156.14 23.6819V0.260241H165.942V3.26747H160.407V10.0048H164.76V12.9831H160.407V20.7325H166V23.6819H156.14Z" fill="black"/>
</svg>
