<svg width="36" height="36" viewBox="0 0 36 36" fill="none" xmlns="http://www.w3.org/2000/svg">
<path d="M6.75 29.25H8.4L25.0125 12.6375L23.3625 10.9875L6.75 27.6V29.25ZM29.775 11.025L24.975 6.22495L26.55 4.64995C26.975 4.22495 27.5 4.01245 28.125 4.01245C28.75 4.01245 29.275 4.22495 29.7 4.64995L31.35 6.29995C31.775 6.72495 31.9875 7.24995 31.9875 7.87495C31.9875 8.49995 31.775 9.02495 31.35 9.44995L29.775 11.025ZM28.2 12.6L9.3 31.5H4.5V26.7L23.4 7.79995L28.2 12.6ZM24.1875 11.8125L23.3625 10.9875L25.0125 12.6375L24.1875 11.8125Z" fill="black"/>
</svg>
